<?xml version="1.0" encoding="UTF-8" standalone="no"?>
<!-- Uploaded to: SVG Repo, www.svgrepo.com, Generator: SVG Repo Mixer Tools -->

<svg
   fill="#000000"
   width="800px"
   height="800px"
   viewBox="-1 0 19 19"
   class="cf-icon-svg"
   version="1.1"
   id="svg1"
   sodipodi:docname="logo 2.svg"
   inkscape:version="1.4.2 (f4327f4, 2025-05-13)"
   xmlns:inkscape="http://www.inkscape.org/namespaces/inkscape"
   xmlns:sodipodi="http://sodipodi.sourceforge.net/DTD/sodipodi-0.dtd"
   xmlns="http://www.w3.org/2000/svg"
   xmlns:svg="http://www.w3.org/2000/svg">
  <defs
     id="defs1">
    <rect
       x="0"
       y="0"
       width="800"
       height="800"
       id="rect3" />
    <rect
       x="0"
       y="0"
       width="800"
       height="800"
       id="rect2" />
  </defs>
  <sodipodi:namedview
     id="namedview1"
     pagecolor="#ffffff"
     bordercolor="#000000"
     borderopacity="0.25"
     inkscape:showpageshadow="2"
     inkscape:pageopacity="0.0"
     inkscape:pagecheckerboard="0"
     inkscape:deskcolor="#d1d1d1"
     inkscape:zoom="0.97875"
     inkscape:cx="312.13282"
     inkscape:cy="420.43423"
     inkscape:window-width="1920"
     inkscape:window-height="1001"
     inkscape:window-x="-9"
     inkscape:window-y="-9"
     inkscape:window-maximized="1"
     inkscape:current-layer="svg1"
     showgrid="false" />
  <path
     id="path1"
     style="display:inline;fill:#c0c0c0;fill-opacity:1;stroke-width:0.999994;stroke-dasharray:none"
     d="M 7.7790112,2.0669922 A 0.586,0.586 0 0 0 7.22302,2.5349878 L 7.0190112,3.7170142 A 0.433,0.433 0 0 0 7.0140015,3.8309863 5.903,5.903 0 0 0 5.4860229,4.465 0.444,0.444 0 0 0 5.4009961,4.3869775 L 4.4209839,3.696001 A 0.587,0.587 0 0 0 3.6960059,3.75802 L 2.6760083,4.7780176 a 0.587,0.587 0 0 0 -0.060998,0.7240039 l 0.6909765,0.9799658 a 0.466,0.466 0 0 0 0.077002,0.085027 5.912,5.912 0 0 0 -0.6329932,1.5279785 0.437,0.437 0 0 0 -0.1139722,0.00501 L 1.4539966,8.3040112 A 0.586,0.586 0 0 0 0.98600098,8.8600024 v 1.4399826 a 0.586,0.586 0 0 0 0.46799562,0.556038 l 1.1820263,0.203962 a 0.466,0.466 0 0 0 0.1139722,0.006 5.901,5.901 0 0 0 0.6329932,1.527978 0.454,0.454 0 0 0 -0.077002,0.08503 l -0.6909765,0.979966 a 0.586,0.586 0 0 0 0.060998,0.72303 l 1.0199976,1.019997 a 0.586,0.586 0 0 0 0.724978,0.06197 L 5.4009961,14.77301 a 0.444,0.444 0 0 0 0.085027,-0.077 5.908,5.908 0 0 0 1.543982,0.636983 0.495,0.495 0 0 0 0,0.175017 L 7.21198,16.560986 a 0.667,0.667 0 0 0 0.6330395,0.53201 h 1.309961 A 0.667,0.667 0 0 0 9.78802,16.560986 l 0.1819751,-1.052978 a 0.502,0.502 0 0 0 0,-0.175017 5.908,5.908 0 0 0 1.5439819,-0.636983 0.444,0.444 0 0 0 0.08503,0.07798 l 0.980012,0.690003 a 0.586,0.586 0 0 0 0.724004,-0.061 l 1.019998,-1.019997 a 0.586,0.586 0 0 0 0.06197,-0.724978 L 13.694014,12.678 a 0.455,0.455 0 0 0 -0.07802,-0.08401 5.902,5.902 0 0 0 0.634014,-1.527978 0.463,0.463 0 0 0 0.113972,-0.006 l 1.182026,-0.203962 a 0.587,0.587 0 0 0 0.467996,-0.556038 V 8.8600024 A 0.587,0.587 0 0 0 15.546003,8.3040112 L 14.363977,8.1000024 a 0.434,0.434 0 0 0 -0.113972,-0.00501 5.902,5.902 0 0 0 -0.634014,-1.5279785 0.467,0.467 0 0 0 0.07802,-0.085027 L 14.38499,5.5020215 A 0.586,0.586 0 0 0 14.323018,4.7780176 L 13.30302,3.75802 A 0.586,0.586 0 0 0 12.579016,3.696001 L 11.599004,4.3869775 A 0.444,0.444 0 0 0 11.513977,4.465 5.908,5.908 0 0 0 9.9859985,3.8309863 0.448,0.448 0 0 0 9.9809888,3.7170142 L 9.77698,2.5349878 A 0.586,0.586 0 0 0 9.2209888,2.0669922 Z" />
  <path
     d="M 4.8591064,5.7768164 V 6.9826855 L 10.687598,9.7500708 4.8591064,12.177302 v 1.205916 L 12.140847,10.182952 V 9.4099634 Z"
     style="font-size:192px;white-space:pre;fill:#c0a78c;stroke-width:42.105"
     id="path2" />
</svg>
